<?xml version="1.0" encoding="UTF-8" standalone="no"?>
<svg
   xmlns:dc="http://purl.org/dc/elements/1.1/"
   xmlns:cc="http://creativecommons.org/ns#"
   xmlns:rdf="http://www.w3.org/1999/02/22-rdf-syntax-ns#"
   xmlns:svg="http://www.w3.org/2000/svg"
   xmlns="http://www.w3.org/2000/svg"
   xmlns:sodipodi="http://sodipodi.sourceforge.net/DTD/sodipodi-0.dtd"
   xmlns:inkscape="http://www.inkscape.org/namespaces/inkscape"
 
   height="210mm"
   viewBox="0 0 297 210"
   version="1.1"
   id="svg8"
   inkscape:version="1.0.1 (c497b03c, 2020-09-10)"
   sodipodi:docname="title1.svg">
  <defs
     id="defs2">
    <rect
       x="162.52975"
       y="18.142857"
       width="2.2678571"
       height="28.726191"
       id="rect18" />
    <rect
       x="162.52975"
       y="18.142857"
       width="2.2678571"
       height="28.726191"
       id="rect1216" />
  </defs>
  <sodipodi:namedview
     id="base"
     pagecolor="#ffffff"
     bordercolor="#666666"
     borderopacity="1.0"
     inkscape:pageopacity="0.0"
     inkscape:pageshadow="2"
     inkscape:zoom="0.70383059"
     inkscape:cx="554.69568"
     inkscape:cy="391.42755"
     inkscape:document-units="mm"
     inkscape:current-layer="layer3"
     inkscape:document-rotation="0"
     showgrid="false"
     units="mm"
     width="600in"
     inkscape:window-width="1545"
     inkscape:window-height="932"
     inkscape:window-x="107"
     inkscape:window-y="64"
     inkscape:window-maximized="0" />
  <metadata
     id="metadata5">
    <rdf:RDF>
      <cc:Work
         rdf:about="">
        <dc:format>image/svg+xml</dc:format>
        <dc:type
           rdf:resource="http://purl.org/dc/dcmitype/StillImage" />
        <dc:title></dc:title>
      </cc:Work>
    </rdf:RDF>
  </metadata>
  <g
     inkscape:label="base"
     inkscape:groupmode="layer"
     id="layer1"
     sodipodi:insensitive="true">
    <text
       xml:space="preserve"
       id="text16"
       style="font-style:normal;font-weight:normal;font-size:10.58329999999999949px;line-height:1.25;font-family:sans-serif;white-space:pre;shape-inside:url(#rect18);fill:#000000;fill-opacity:1;stroke:none;" />
    <g
       aria-label="Shunsuke Suzuki
"
       transform="scale(0.96582616,1.035383)"
       id="text1023"
       style="font-size:41.7252px;line-height:1.25;font-family:'Bodoni 72 Oldstyle';-inkscape-font-specification:'Bodoni 72 Oldstyle, Normal';stroke-width:0.116904" />
    <g
       aria-label="- Portfolio -"
       transform="scale(1.0374068,0.96394201)"
       id="text1029"
       style="font-size:46.2933px;line-height:1.25;font-family:'Bodoni 72 Oldstyle';-inkscape-font-specification:'Bodoni 72 Oldstyle, Normal';stroke-width:0.129702" />
    <g
       aria-label="Shunsuke Suzuki
"
       transform="scale(0.84068444,1.189507)"
       id="text1134"
       style="font-style:normal;font-variant:normal;font-weight:normal;font-stretch:normal;font-size:76.8504px;line-height:1.25;font-family:'Savoye LET';-inkscape-font-specification:'Savoye LET, Normal';font-variant-ligatures:normal;font-variant-caps:normal;font-variant-numeric:normal;font-variant-east-asian:normal;stroke-width:1.80118">
      <path
         id="path1170"
         style="font-style:normal;font-variant:normal;font-weight:normal;font-stretch:normal;font-size:76.8504px;font-family:'Savoye LET';-inkscape-font-specification:'Savoye LET, Normal';font-variant-ligatures:normal;font-variant-caps:normal;font-variant-numeric:normal;font-variant-east-asian:normal;fill:#fff;stroke-width:1.80118"
         d="m 341.90624,42.195068 q 0.97564,0 1.57603,0.600394 0.60039,0.600394 0.60039,1.576034 0,0.938115 -0.63791,1.576034 -0.63792,0.637918 -1.53851,0.637918 -0.86307,0 -1.53851,-0.675443 -0.67545,-0.675443 -0.67545,-1.538509 0,-0.900591 0.63792,-1.538509 0.63792,-0.637919 1.57604,-0.637919 z m -1.08822,14.709648 -3.30216,12.345597 q -0.82554,3.039493 -0.82554,4.878199 0,1.200788 0.41277,1.95128 0.41277,0.750492 1.08821,0.750492 1.16326,0 3.71494,-2.776821 l 0.60039,0.525345 -0.37525,0.41277 q -2.1389,2.514149 -3.15206,3.41474 -1.01317,0.863066 -1.87623,0.863066 -1.16327,0 -1.98881,-1.163263 -0.78801,-1.200788 -0.78801,-2.964444 0,-1.125739 0.45029,-3.564838 l 2.36405,-13.133614 z m -15.76033,-30.920279 -10.2067,44.391614 q 0.86307,-2.026329 2.06386,-3.902559 1.20078,-1.876231 2.73929,-3.639888 1.53851,-1.801181 2.96445,-2.926919 1.8387,-1.46346 3.67741,-2.176428 1.87623,-0.712967 4.20276,-0.825541 l -0.67545,3.001969 q -1.12574,-0.225148 -1.6886,-0.225148 -4.42791,0 -8.25542,4.465429 1.53851,4.127707 3.26464,7.429873 0.97564,1.913755 1.68861,3.077018 0.75049,1.125738 1.35089,1.651083 0.63791,0.525344 1.23831,0.525344 1.42593,0 3.60236,-2.289001 l 0.3002,-0.337722 0.48782,0.56287 q -3.78999,4.578002 -5.51612,4.578002 -1.16326,0 -2.17643,-1.013164 -1.01316,-1.013165 -2.36405,-3.489789 -2.36405,-4.31533 -3.86503,-8.180365 -3.52732,5.816314 -4.50296,11.745203 l -2.4391,0.788017 10.0566,-51.296143 z M 295.60088,56.904716 291.961,71.42674 q -0.48782,1.95128 -0.48782,3.302166 0,1.313361 0.82554,2.101378 0.82554,0.788017 2.1389,0.788017 3.18959,0 6.64186,-5.215921 l 0.1501,-0.225148 q 0.075,-0.375246 0.11257,-0.600393 l 2.36405,-13.133614 3.67741,-1.538509 -3.30216,12.345597 q -0.82554,3.039493 -0.82554,4.878199 0,1.200788 0.41277,1.95128 0.41277,0.750492 1.08821,0.750492 1.16326,0 3.71494,-2.776821 l 0.60039,0.525345 -0.37525,0.41277 q -2.1389,2.514149 -3.15206,3.41474 -1.01317,0.863066 -1.87623,0.863066 -1.16327,0 -1.98881,-1.163263 -0.78801,-1.200788 -0.78801,-2.964444 0,-0.562869 0.0375,-1.050689 -3.90256,5.178396 -7.73007,5.178396 -1.91376,0 -3.07702,-1.088214 -1.12574,-1.125738 -1.12574,-2.964444 0,-1.425935 0.41277,-3.489789 l 2.5517,-13.283712 z m -21.68921,0.637918 h 12.27055 l 0.30019,0.900591 -0.56287,0.675443 -4.2778,5.140872 q -4.76563,5.77879 -6.30414,7.730069 -1.53851,1.913756 -2.92692,3.940085 1.87623,0.187623 4.7281,0.187623 2.47663,0 4.95325,-0.07505 0.71297,0 2.32653,-0.112573 l -0.37525,2.964444 h -14.85974 l -0.4503,-0.97564 0.52535,-0.600394 q 0.60039,-0.675443 1.50098,-1.726132 0.90059,-1.050689 2.21395,-2.589198 1.31336,-1.576034 2.10138,-2.551674 0.82554,-0.97564 1.27584,-1.538509 l 3.45226,-4.390379 q 1.95128,-2.476624 3.26464,-4.240281 H 273.3488 Z M 254.7741,56.904716 251.13422,71.42674 q -0.48782,1.95128 -0.48782,3.302166 0,1.313361 0.82554,2.101378 0.82554,0.788017 2.1389,0.788017 3.18959,0 6.64186,-5.215921 l 0.15009,-0.225148 q 0.0751,-0.375246 0.11258,-0.600393 l 2.36405,-13.133614 3.67741,-1.538509 -3.30217,12.345597 q -0.82554,3.039493 -0.82554,4.878199 0,1.200788 0.41277,1.95128 0.41277,0.750492 1.08822,0.750492 1.16326,0 3.71493,-2.776821 l 0.6004,0.525345 -0.37525,0.41277 q -2.1389,2.514149 -3.15207,3.41474 -1.01316,0.863066 -1.87623,0.863066 -1.16326,0 -1.9888,-1.163263 -0.78802,-1.200788 -0.78802,-2.964444 0,-0.562869 0.0375,-1.050689 -3.90256,5.178396 -7.73007,5.178396 -1.91376,0 -3.07702,-1.088214 -1.12574,-1.125738 -1.12574,-2.964444 0,-1.425935 0.41277,-3.489789 l 2.55168,-13.283712 z m -44.09142,20.976257 2.06386,-3.752461 q 6.34166,3.489789 12.30807,3.489789 3.97761,0 7.24225,-1.425935 3.30217,-1.46346 5.1784,-3.940084 1.91375,-2.514149 1.91375,-5.441069 0,-2.889395 -1.72613,-5.140872 -1.72613,-2.251476 -6.22909,-5.21592 -4.39038,-2.92692 -5.36602,-3.602363 -0.93811,-0.675443 -2.47662,-1.913755 -2.7393,-2.401575 -2.7393,-5.666216 0,-5.891364 7.65502,-11.332433 2.13891,-1.538509 4.8782,-2.776821 2.77682,-1.238312 5.44107,-1.876231 2.66425,-0.637918 4.99078,-0.637918 3.41473,0 5.36601,1.275837 1.95128,1.275836 1.95128,3.564838 0,2.814346 -2.36405,6.041462 -2.36405,3.189592 -6.45423,5.891364 l -3.00197,-1.688608 q 2.77682,-1.87623 4.69058,-3.752461 1.91375,-1.87623 2.96444,-3.639887 1.05069,-1.801181 1.05069,-3.264641 0,-1.013164 -0.56287,-1.726132 -0.56287,-0.712968 -1.61356,-1.088214 -1.05068,-0.375246 -2.62672,-0.375246 -2.92692,0 -6.30413,1.163263 -3.33969,1.125738 -6.30414,3.001969 -6.60433,4.165232 -6.60433,9.268579 0,1.425935 0.78802,2.701772 0.78801,1.238312 2.73929,2.814346 1.98881,1.576033 5.77879,4.052658 2.81435,1.838705 4.24029,3.001968 1.46346,1.163263 2.40157,2.4391 2.10138,2.664247 2.10138,5.966413 0,2.551674 -1.35089,5.178396 -1.31336,2.626723 -3.75246,4.915724 -5.70374,5.36602 -15.83538,5.36602 -6.60434,0 -10.43185,-1.876231 z m -16.62339,-4.840675 0.67544,0.56287 q -2.32653,3.077018 -4.54048,4.465428 -2.21395,1.350886 -4.76562,1.350886 -3.0395,0 -4.8782,-2.026329 -1.83871,-2.026329 -1.83871,-5.366019 0,-3.377215 1.76366,-6.829479 1.80118,-3.489789 4.46543,-5.741266 2.70177,-2.289001 5.32849,-2.289001 1.53851,0 2.51415,0.900591 1.01316,0.90059 1.01316,2.326526 0,2.889395 -3.15206,5.77879 -3.15207,2.889395 -8.59314,4.915724 -0.0375,0.300197 -0.0375,0.675443 0,2.589198 1.42593,4.240281 1.42594,1.613558 3.67741,1.613558 1.76366,0 3.41474,-1.088214 1.65109,-1.125738 3.52732,-3.489789 z m -12.00788,-2.85187 q 4.05266,-1.801181 6.22909,-4.015133 1.46346,-1.500985 2.36405,-3.227117 0.90059,-1.726132 0.90059,-3.114542 0,-1.763657 -1.61356,-1.763657 -2.4391,0 -4.95325,3.865035 -2.47662,3.82751 -2.92692,8.255414 z m -11.5951,-44.203991 -10.2067,44.391614 q 0.86307,-2.026329 2.06386,-3.902559 1.20078,-1.876231 2.73929,-3.639888 1.53851,-1.801181 2.96445,-2.926919 1.8387,-1.46346 3.67741,-2.176428 1.87623,-0.712967 4.20276,-0.825541 l -0.67545,3.001969 q -1.12574,-0.225148 -1.6886,-0.225148 -4.42791,0 -8.25542,4.465429 1.53851,4.127707 3.26464,7.429873 0.97564,1.913755 1.68861,3.077018 0.75049,1.125738 1.35089,1.651083 0.63791,0.525344 1.23831,0.525344 1.42593,0 3.60236,-2.289001 l 0.3002,-0.337722 0.48782,0.56287 q -3.78999,4.578002 -5.51612,4.578002 -1.16326,0 -2.17643,-1.013164 -1.01316,-1.013165 -2.36405,-3.489789 -2.36405,-4.31533 -3.86503,-8.180365 -3.52732,5.816314 -4.50296,11.745203 l -2.4391,0.788017 10.0566,-51.296143 z M 140.99948,56.904716 137.3596,71.42674 q -0.48782,1.95128 -0.48782,3.302166 0,1.313361 0.82554,2.101378 0.82554,0.788017 2.1389,0.788017 3.18959,0 6.64186,-5.215921 l 0.15009,-0.225148 q 0.075,-0.375246 0.11258,-0.600393 l 2.36405,-13.133614 3.67741,-1.538509 -3.30217,12.345597 q -0.82554,3.039493 -0.82554,4.878199 0,1.200788 0.41277,1.95128 0.41277,0.750492 1.08822,0.750492 1.16326,0 3.71493,-2.776821 l 0.6004,0.525345 -0.37525,0.41277 q -2.1389,2.514149 -3.15207,3.41474 -1.01316,0.863066 -1.87623,0.863066 -1.16326,0 -1.9888,-1.163263 -0.78802,-1.200788 -0.78802,-2.964444 0,-0.562869 0.0375,-1.050689 -3.90256,5.178396 -7.73007,5.178396 -1.91376,0 -3.07702,-1.088214 -1.12574,-1.125738 -1.12574,-2.964444 0,-1.425935 0.41277,-3.489789 l 2.55168,-13.283712 z m -26.04207,19.550322 2.10138,-2.476624 q 1.65108,3.902559 5.25344,3.902559 1.87623,0 3.18959,-1.200787 1.35089,-1.238312 1.35089,-2.851871 0,-1.163263 -0.63792,-1.988804 -0.63792,-0.825541 -3.03949,-2.776821 -2.21395,-1.801182 -3.00197,-2.814346 -0.75049,-1.050689 -0.75049,-2.401575 0,-1.763657 1.01316,-3.264641 1.05069,-1.500985 2.77682,-2.401575 1.72613,-0.938116 3.63989,-0.938116 1.68861,0 2.81435,0.863066 1.16326,0.825542 1.16326,2.138903 0,1.726132 -1.46346,2.364051 -0.22515,-1.763657 -1.35089,-2.739297 -1.08821,-1.013164 -2.81434,-1.013164 -1.53851,0 -2.70178,1.013164 -1.12573,0.97564 -1.12573,2.251477 0,1.576033 1.95128,3.114542 l 2.17642,1.763657 q 3.1896,2.514149 3.1896,5.140872 0,1.95128 -1.12574,3.677412 -1.08822,1.688607 -3.00197,2.701772 -1.87623,1.013164 -3.97761,1.013164 -3.33969,0 -5.62869,-3.077018 z m -22.477246,2.776821 3.977608,-20.788634 3.564838,-1.538509 -3.227116,13.771532 q 3.114543,-6.566807 6.191556,-9.981546 3.07702,-3.41474 5.89137,-3.41474 1.38841,0 2.25148,0.938115 0.86306,0.900591 0.86306,2.4391 0,0.863066 -0.41277,2.4391 l -0.37525,1.576033 -1.12573,4.578003 -0.37525,1.46346 q -0.56287,2.251476 -0.56287,3.452264 0,1.200787 0.41277,1.95128 0.41277,0.712967 1.08822,0.712967 1.16326,0 3.71493,-2.776821 l 0.6004,0.525345 -0.37525,0.41277 q -2.1389,2.514149 -3.15207,3.41474 -1.01316,0.863066 -1.87623,0.863066 -1.16326,0 -1.9888,-1.163263 -0.78802,-1.200788 -0.78802,-2.964444 0,-1.200788 0.4503,-3.564838 l 1.46346,-7.955218 q 0.30019,-1.87623 0.30019,-2.626723 0,-0.788016 -0.41277,-1.200787 -0.41277,-0.412771 -1.12574,-0.412771 -2.58919,0 -6.37918,5.553643 -1.838706,2.664247 -3.039494,5.29097 -1.200787,2.589198 -2.701772,7.204725 l -0.337721,1.013164 z M 76.607252,56.904716 72.967364,71.42674 q -0.48782,1.95128 -0.48782,3.302166 0,1.313361 0.825542,2.101378 0.825541,0.788017 2.138903,0.788017 3.189592,0 6.641856,-5.215921 l 0.150098,-0.225148 q 0.07505,-0.375246 0.112574,-0.600393 l 2.364051,-13.133614 3.677411,-1.538509 -3.302165,12.345597 q -0.825542,3.039493 -0.825542,4.878199 0,1.200788 0.412771,1.95128 0.412771,0.750492 1.088214,0.750492 1.163263,0 3.714936,-2.776821 l 0.600394,0.525345 -0.375246,0.41277 q -2.138903,2.514149 -3.152068,3.41474 -1.013164,0.863066 -1.87623,0.863066 -1.163263,0 -1.988804,-1.163263 -0.788017,-1.200788 -0.788017,-2.964444 0,-0.562869 0.03752,-1.050689 -3.902559,5.178396 -7.730069,5.178396 -1.913756,0 -3.077019,-1.088214 -1.125738,-1.125738 -1.125738,-2.964444 0,-1.425935 0.412771,-3.489789 L 72.96736,58.443225 Z M 44.823906,79.231859 54.805453,27.898192 58.745537,25.984437 48.35122,71.689413 q 0.150098,-0.262673 0.150098,-0.337722 l 0.863066,-1.95128 q 2.213952,-5.028298 5.553643,-8.705709 3.152067,-3.41474 5.816314,-3.41474 1.425936,0 2.289002,0.938115 0.863066,0.900591 0.863066,2.4391 0,0.863066 -0.412771,2.4391 l -0.375246,1.576033 -1.163263,4.578003 -0.337722,1.46346 q -0.562869,2.251476 -0.562869,3.452264 0,1.200787 0.412771,1.95128 0.412771,0.712967 1.088214,0.712967 1.163263,0 3.714936,-2.776821 l 0.562869,0.525345 -0.337721,0.41277 q -2.138903,2.514149 -3.189592,3.41474 -1.013165,0.863066 -1.838706,0.863066 -1.163263,0 -1.988804,-1.238312 -0.825542,-1.238312 -0.825542,-2.889395 0,-1.013165 0.48782,-3.564838 l 1.425935,-7.955218 q 0.337722,-1.763657 0.337722,-2.626723 0,-0.788016 -0.412771,-1.200787 -0.412771,-0.412771 -1.125738,-0.412771 -1.388411,0 -3.189592,1.651083 -1.801182,1.613558 -3.639887,4.502953 -1.801182,2.889395 -3.152068,6.191561 -1.350886,3.264641 -2.026329,6.716905 z M 8.500082,77.880973 10.563936,74.128512 q 6.341659,3.489789 12.308072,3.489789 3.977609,0 7.24225,-1.425935 3.302166,-1.46346 5.178396,-3.940084 1.913755,-2.514149 1.913755,-5.441069 0,-2.889395 -1.726132,-5.140872 -1.726132,-2.251476 -6.229085,-5.21592 -4.39038,-2.92692 -5.36602,-3.602363 -0.938115,-0.675443 -2.476624,-1.913755 -2.739296,-2.401575 -2.739296,-5.666216 0,-5.891364 7.65502,-11.332433 2.138903,-1.538509 4.8782,-2.776821 2.776821,-1.238312 5.441068,-1.876231 2.664247,-0.637918 4.990773,-0.637918 3.41474,0 5.36602,1.275837 1.951279,1.275836 1.951279,3.564838 0,2.814346 -2.36405,6.041462 -2.364051,3.189592 -6.454233,5.891364 L 37.13136,43.733577 q 2.776821,-1.87623 4.690576,-3.752461 1.913756,-1.87623 2.964445,-3.639887 1.050689,-1.801181 1.050689,-3.264641 0,-1.013164 -0.562869,-1.726132 -0.56287,-0.712968 -1.613559,-1.088214 -1.050689,-0.375246 -2.626722,-0.375246 -2.92692,0 -6.304135,1.163263 -3.33969,1.125738 -6.304135,3.001969 -6.604331,4.165232 -6.604331,9.268579 0,1.425935 0.788017,2.701772 0.788017,1.238312 2.739296,2.814346 1.988805,1.576033 5.77879,4.052658 2.814346,1.838705 4.240281,3.001968 1.46346,1.163263 2.401575,2.4391 2.101379,2.664247 2.101379,5.966413 0,2.551674 -1.350886,5.178396 -1.313362,2.626723 -3.752461,4.915724 -5.703741,5.36602 -15.835386,5.36602 -6.604332,0 -10.431842,-1.876231 z" />
    </g>
    <g
       aria-label="- Portfolio -
"
       transform="scale(1.1756954,0.85056042)"
       id="text1140"
       style="font-style:normal;font-variant:normal;font-weight:normal;font-stretch:normal;font-size:69.8704px;line-height:1.25;font-family:'Savoye LET';-inkscape-font-specification:'Savoye LET, Normal';font-variant-ligatures:normal;font-variant-caps:normal;font-variant-numeric:normal;font-variant-east-asian:normal;stroke-width:1.63757">
      <path
         id="path1193"
         style="font-style:normal;font-variant:normal;font-weight:normal;font-stretch:normal;font-size:69.8704px;font-family:'Savoye LET';-inkscape-font-specification:'Savoye LET, Normal';font-variant-ligatures:normal;font-variant-caps:normal;font-variant-numeric:normal;font-variant-east-asian:normal;fill:#fff;stroke-width:1.63757"
         d="m 233.1856,176.20703 -0.30704,1.53524 h -8.32441 l 0.30705,-1.53524 z m -43.80546,4.60572 q 0,-3.07048 1.63759,-6.10684 1.6717,-3.07048 4.29867,-4.98099 2.62696,-1.91052 5.35627,-1.91052 2.86578,0 4.60572,1.91052 1.77405,1.8764 1.77405,4.87864 0,3.27518 -1.63759,6.34565 -1.60347,3.07048 -4.26455,5.04923 -2.62696,1.94464 -5.32216,1.94464 -2.89989,0 -4.67395,-1.94464 -1.77405,-1.97875 -1.77405,-5.18569 z m 14.60182,-7.50561 q 0,-2.04699 -1.02349,-3.37753 -0.98937,-1.33054 -2.55873,-1.33054 -1.43289,0 -2.76343,0.92115 -1.29642,0.92114 -2.38815,2.69519 -1.22819,2.04699 -2.04698,4.7763 -0.78468,2.72931 -0.78468,4.84453 0,2.52461 0.98938,3.88927 0.98937,1.36466 2.83166,1.36466 2.96813,0 5.21981,-4.12809 1.15996,-2.11522 1.84229,-4.74218 0.68232,-2.62696 0.68232,-4.91276 z m -16.88763,-19.27577 q 0.88703,0 1.43289,0.54586 0.54587,0.54586 0.54587,1.43289 0,0.85291 -0.57998,1.43289 -0.57998,0.57998 -1.39878,0.57998 -0.78467,0 -1.39877,-0.6141 -0.61409,-0.61409 -0.61409,-1.39877 0,-0.81879 0.57997,-1.39877 0.57998,-0.57998 1.43289,-0.57998 z m -0.98937,13.37363 -3.00225,11.2243 q -0.75056,2.76343 -0.75056,4.43513 0,1.09173 0.37528,1.77405 0.37528,0.68233 0.98938,0.68233 1.05761,0 3.37752,-2.52461 l 0.54587,0.47763 -0.34117,0.37528 q -1.94463,2.2858 -2.86578,3.10459 -0.92114,0.78468 -1.70582,0.78468 -1.0576,0 -1.80817,-1.05761 -0.71644,-1.09172 -0.71644,-2.6952 0,-1.02349 0.4094,-3.24105 l 2.14933,-11.94075 z m -4.12808,-28.11192 -8.97262,39.33622 -0.30704,1.33054 q -0.44352,1.8764 -0.44352,3.17282 0,1.05761 0.37528,1.73994 0.4094,0.64821 0.98938,0.64821 1.05761,0 3.37752,-2.52461 l 0.54587,0.47763 -0.34117,0.37528 q -1.94463,2.2858 -2.86578,3.10459 -0.92114,0.78468 -1.70582,0.78468 -1.02349,0 -1.80817,-1.12584 -0.75056,-1.15996 -0.75056,-2.62697 0,-1.02349 0.44352,-3.24105 l 7.88089,-39.7115 z m -33.26349,41.51967 q 0,-3.07048 1.63758,-6.10684 1.67171,-3.07048 4.29867,-4.98099 2.62696,-1.91052 5.35628,-1.91052 2.86577,0 4.60571,1.91052 1.77405,1.8764 1.77405,4.87864 0,3.27518 -1.63758,6.34565 -1.60347,3.07048 -4.26455,5.04923 -2.62697,1.94464 -5.32216,1.94464 -2.8999,0 -4.67395,-1.94464 -1.77405,-1.97875 -1.77405,-5.18569 z m 14.60182,-7.50561 q 0,-2.04699 -1.02349,-3.37753 -0.98938,-1.33054 -2.55873,-1.33054 -1.43289,0 -2.76343,0.92115 -1.29643,0.92114 -2.38815,2.69519 -1.22819,2.04699 -2.04699,4.7763 -0.78467,2.72931 -0.78467,4.84453 0,2.52461 0.98937,3.88927 0.98938,1.36466 2.83166,1.36466 2.96813,0 5.21981,-4.12809 1.15996,-2.11522 1.84229,-4.74218 0.68233,-2.62696 0.68233,-4.91276 z m -21.56158,-4.1622 h -3.3434 l 0.23881,-1.15996 h 3.37753 l 3.20694,-14.9771 q 0.81879,-3.71869 1.6717,-5.93626 0.85291,-2.21756 2.04699,-3.82103 2.93401,-3.92339 7.30091,-3.92339 1.467,0 2.69519,0.47763 l -1.22819,3.10459 q -1.36465,-1.91052 -3.47987,-1.91052 -1.60347,0 -2.62696,1.26231 -0.98938,1.22819 -1.70582,4.09397 l -5.21981,21.6298 h 5.49274 l -0.23882,1.15996 h -5.52686 l -4.67394,19.37812 q -0.92115,3.88927 -1.77406,5.79978 -0.88702,1.91052 -2.38814,3.54811 -2.72932,2.96813 -5.97038,2.96813 -1.56935,0 -2.79754,-0.54586 l 1.6717,-2.45639 q 1.43289,1.15996 3.1046,1.15996 2.52461,0 3.78692,-2.66108 0.92114,-1.97875 1.94463,-6.55035 z m -10.26903,0 -2.59285,11.36076 q -0.40939,1.8764 -0.40939,2.66108 0,1.22819 0.57998,1.97875 0.57998,0.75056 1.53524,0.75056 0.92114,0 1.6717,-0.51174 0.78468,-0.54587 2.35403,-2.21757 l 0.4094,-0.4094 0.51174,0.51175 q -2.01286,2.45638 -3.37752,3.47987 -1.33054,0.98938 -2.62696,0.98938 -1.63759,0 -2.62697,-1.05761 -0.95526,-1.09172 -0.95526,-2.83166 0,-1.29643 0.51175,-3.75281 l 2.21757,-10.95136 h -3.27518 l 0.23882,-1.15996 h 3.27517 l 1.91052,-9.21143 3.27517,-1.29642 -2.38814,10.50785 h 5.52685 l -0.23881,1.15996 z m -21.66392,8.5291 q 2.93401,-3.54811 3.92339,-6.61858 -2.76343,-1.53524 -2.76343,-4.40102 0,-1.36466 0.64821,-2.21757 0.64821,-0.85291 1.63759,-0.85291 1.02349,0 1.6717,0.95526 0.64821,0.92115 0.64821,2.42227 0,1.05761 -0.37528,2.35403 0.92114,0.23881 1.6717,0.23881 2.11522,0 3.47988,-1.22819 h 1.63759 l -0.23882,0.47763 q -2.45638,4.50337 -4.05985,8.87027 -1.56936,4.33278 -1.56936,6.48212 0,0.78467 0.4094,1.33054 0.4094,0.51174 0.98938,0.51174 1.39877,0 4.50336,-2.96813 l 0.54586,0.6141 q -0.95526,1.05761 -2.96812,2.62696 -1.80817,1.43289 -3.37753,1.43289 -1.33054,0 -2.11521,-0.88702 -0.75057,-0.88703 -0.75057,-2.42227 0,-2.55873 1.97876,-6.48212 0.71644,-1.467 1.84228,-3.3434 1.12584,-1.87641 2.83166,-4.46925 l 0.34117,-0.47763 q -1.12584,1.02349 -2.18345,1.467 -1.02349,0.4094 -2.35403,0.4094 -0.6141,0 -1.29643,-0.17058 -1.09172,3.34341 -4.09397,6.89151 z m 4.67395,-8.66557 q 0.13646,-0.85291 0.13646,-1.43289 0,-1.19407 -0.4094,-1.8764 -0.37528,-0.68233 -0.98937,-0.68233 -0.34117,0 -0.6141,0.34117 -0.23881,0.30704 -0.23881,0.78467 0,1.60347 2.11522,2.86578 z m -25.143793,11.80428 q 0,-3.07048 1.637588,-6.10684 1.671704,-3.07048 4.298667,-4.98099 2.626963,-1.91052 5.356278,-1.91052 2.86578,0 4.60571,1.91052 1.77406,1.8764 1.77406,4.87864 0,3.27518 -1.63759,6.34565 -1.60347,3.07048 -4.26455,5.04923 -2.626966,1.94464 -5.322162,1.94464 -2.899894,0 -4.673948,-1.94464 -1.774053,-1.97875 -1.774053,-5.18569 z m 14.601823,-7.50561 q 0,-2.04699 -1.02349,-3.37753 -0.98938,-1.33054 -2.55873,-1.33054 -1.432893,0 -2.763432,0.92115 -1.296424,0.92114 -2.388149,2.69519 -1.22819,2.04699 -2.046984,4.7763 -0.784678,2.72931 -0.784678,4.84453 0,2.52461 0.989376,3.88927 0.989376,1.36466 2.831662,1.36466 2.968127,0 5.219815,-4.12809 1.15995,-2.11522 1.84228,-4.74218 0.68233,-2.62696 0.68233,-4.91276 z m -44.658375,14.05596 4.26455,-19.68517 q 1.091725,-5.01511 1.739937,-10.43962 0.682328,-5.45862 0.682328,-10.06434 0,-1.05761 -0.03412,-1.8764 l 3.752804,-1.70582 v 0.95526 q 0,2.25168 -0.409396,7.26679 -0.409397,5.01511 -0.852911,7.71031 2.081101,-4.87865 5.185694,-9.04085 3.104593,-4.19631 6.345652,-6.61858 3.275175,-2.42226 5.936254,-2.42226 2.66108,0 4.264551,2.14933 1.637588,2.11522 1.637588,5.69744 0,4.50336 -1.944636,9.04085 -1.944635,4.53748 -5.322159,8.35852 -3.343408,3.82103 -7.369144,6.0386 -3.991619,2.18345 -7.915006,2.18345 -0.887026,0 -2.081101,-0.23881 l 1.80817,-2.42227 q 1.671704,0.54586 3.411641,0.54586 2.831661,0 5.663323,-1.8764 2.865778,-1.91052 5.117461,-5.35628 2.081101,-3.17282 3.548106,-7.88089 1.467006,-4.74218 1.467006,-8.18793 0,-2.86578 -0.989376,-4.46925 -0.95526,-1.60347 -2.695196,-1.60347 -2.456382,0 -5.663324,2.83166 -3.206942,2.79754 -6.277418,7.60796 -2.217567,3.41164 -3.718689,7.36914 -1.467005,3.9575 -2.626963,9.17731 l -3.684572,16.95586 z m -20.708657,-11.15607 -0.307048,1.53524 h -8.324403 l 0.307047,-1.53524 z" />
    </g>
  </g>
</svg>
